<svg width="29" height="27" viewBox="0 0 29 27" fill="none" xmlns="http://www.w3.org/2000/svg">
<g clip-path="url(#clip0_1_31)">
<path d="M14.5 12.4186C11.1484 12.4186 8.42456 9.63473 8.42456 6.20928C8.42456 2.78383 11.1484 0 14.5 0C17.8516 0 20.5754 2.78383 20.5754 6.20928C20.5754 9.63473 17.8516 12.4186 14.5 12.4186ZM14.5 2.06976C12.2622 2.06976 10.4497 3.92219 10.4497 6.20928C10.4497 8.49636 12.2622 10.3488 14.5 10.3488C16.7378 10.3488 18.5503 8.49636 18.5503 6.20928C18.5503 3.92219 16.7378 2.06976 14.5 2.06976Z" fill="black"/>
<path d="M28.1899 26.9793C27.6837 27.0621 27.1976 26.7516 27.0559 26.2445C26.4382 24.0713 25.3041 22.0947 23.7549 20.4803C23.3296 20.0353 22.874 19.6213 22.3778 19.2591C20.1198 17.4895 17.3453 16.5374 14.5 16.5581C11.0168 16.5581 7.68541 17.9862 5.24512 20.5217C3.69588 22.1361 2.56181 24.123 1.94414 26.2963C1.78213 26.7827 1.29609 27.0724 0.81006 26.9793H0.749306C0.212644 26.8344 -0.111379 26.2652 0.030381 25.7167C0.030381 25.7167 0.030381 25.696 0.030381 25.6857C0.73918 23.1709 2.04539 20.8839 3.83764 19.0211C6.65259 16.1131 10.4902 14.478 14.4899 14.4883C17.7605 14.4676 20.9399 15.5542 23.5321 17.5929C24.1093 18.0172 24.646 18.5036 25.1421 19.0211C26.9344 20.8839 28.2406 23.1709 28.9494 25.6857C29.1114 26.2342 28.7975 26.8137 28.271 26.969C28.271 26.969 28.2507 26.969 28.2406 26.969H28.1798L28.1899 26.9793Z" fill="black"/>
</g>
<defs>
<clipPath id="clip0_1_31">
<rect width="29" height="27" fill="white"/>
</clipPath>
</defs>
</svg>
